<?xml version="1.0" encoding="utf-8"?>
<!-- Generator: Adobe Illustrator 21.1.0, SVG Export Plug-In . SVG Version: 6.00 Build 0)  -->
<svg version="1.1" id="Layer_1" xmlns="http://www.w3.org/2000/svg" xmlns:xlink="http://www.w3.org/1999/xlink" x="0px" y="0px"
	 viewBox="0 0 1024 1024" style="enable-background:new 0 0 1024 1024;" xml:space="preserve">
<path d="M589.7,512l387.8-387.8c11.7-11.7,11.7-30.5,0-42.1l-35.6-35.6c-11.7-11.7-30.5-11.7-42.1,0L512,434.3L124.2,46.5
	c-11.7-11.7-30.5-11.7-42.1,0L46.5,82.1c-11.7,11.7-11.7,30.5,0,42.1L434.3,512L46.5,899.8c-11.7,11.7-11.7,30.5,0,42.1l35.6,35.6
	c11.7,11.7,30.6,11.7,42.1,0L512,589.7l387.8,387.8c11.7,11.7,30.5,11.7,42.1,0l35.6-35.6c11.7-11.7,11.7-30.6,0-42.1L589.7,512z"/>
</svg>
