<svg viewBox="0 0 1024 1024">
    <g>
        <path d="M843.8,1020H181.5C84,1020,4.8,940.8,4.8,843.3V181C4.8,83.5,84,4.3,181.5,4.3h662.3c97.5,0,176.7,79.2,176.7,176.7v662.3
		C1020.5,940.7,941.3,1020,843.8,1020z M181.5,90.1c-50.1,0-90.9,40.8-90.9,90.9v662.3c0,50.1,40.8,90.9,90.9,90.9h662.3
		c50.1,0,90.9-40.8,90.9-90.9V181c0-50.1-40.8-90.9-90.9-90.9H181.5z" />
    </g>
    <g>
        <path d="M259.4,809.5c-10.9,0-22-4.2-30.4-12.5c-16.7-16.7-16.7-44,0-60.7l224.1-224.1l-224-224.1c-16.7-16.7-16.7-44,0-60.7
		s44-16.7,60.7,0l254.4,254.4c8,8,12.5,18.9,12.5,30.4c0,11.3-4.5,22.2-12.5,30.4L289.8,796.8C281.4,805.3,270.5,809.5,259.4,809.5z
		" />
    </g>
    <g>
        <g>
            <rect x="513.8" y="247.1" width="248.8" height="85.8" />
        </g>
        <g>
            <rect x="513.8" y="691.4" width="248.8" height="85.8" />
        </g>
    </g>
    <g>
        <rect x="638.2" y="469.2" width="124.5" height="85.8" />
    </g>
</svg>
