<?xml version="1.0" encoding="utf-8"?>
<!-- Generator: Adobe Illustrator 22.0.1, SVG Export Plug-In . SVG Version: 6.00 Build 0)  -->
<svg version="1.1" id="Layer_1" xmlns="http://www.w3.org/2000/svg" xmlns:xlink="http://www.w3.org/1999/xlink" x="0px" y="0px"
	 viewBox="0 0 1024 1024" style="enable-background:new 0 0 1024 1024;" xml:space="preserve">
<path d="M784.2,355.2v-76.9c0-72.7-28.3-141.1-79.7-192.5C653.1,34.3,584.7,6,512,6c-72.7,0-141.1,28.3-192.5,79.7
	c-51.4,51.4-79.7,119.8-79.7,192.5l0,76.9C172.3,380.1,124.2,445,124.2,521v322.3c0,97.5,79.2,176.7,176.7,176.7h422.3
	c97.5,0,176.7-79.3,176.7-176.7V521C899.8,445,851.7,380.1,784.2,355.2z M512,90c103.8,0,188.2,84.4,188.2,188.2v66.1H323.8l0-66.1
	C323.8,174.4,408.2,90,512,90z M814,843.3c0,50.1-40.8,90.9-90.9,90.9H300.8c-50.1,0-90.9-40.8-90.9-90.9V521
	c0-50.1,40.8-90.9,90.9-90.9h422.3c50.1,0,90.9,40.8,90.9,90.9V843.3z"/>
</svg>
