<?xml version="1.0" encoding="utf-8"?>
<!-- Generator: Adobe Illustrator 21.1.0, SVG Export Plug-In . SVG Version: 6.00 Build 0)  -->
<svg version="1.1" id="Layer_1" xmlns="http://www.w3.org/2000/svg" xmlns:xlink="http://www.w3.org/1999/xlink" x="0px" y="0px"
	 viewBox="0 0 1000 1000" style="enable-background:new 0 0 1000 1000;" xml:space="preserve">
<g>
	<path d="M985.5,465.1L759.1,238.7c-4.6-4.6-11-7.3-17.5-7.3h-27.5c-34.5,0-65.2,22.1-76,54.9l-42.7,128.9
		c-3.3,10,4.1,20.4,14.7,20.4h76.2c10.5,0,17.9,10.3,14.6,20.2l-30.4,91.6c-3.4,10.1-12.8,17-23.5,17h-83.1
		c-10.7,0-20.2,6.8-23.5,17l-61.2,184.5c-18.8,56.4-61,99.5-114.5,119.4c11.7,11.7,21.1,12,28.5,12c2.3,0,219.8,0,219.8,0
		c6.6,0,12.9-2.6,17.5-7.3l355.2-355.2C1004.8,515.6,1004.8,484.4,985.5,465.1z"/>
	<path d="M403.5,584.5c3.3-9.9-4.1-20.1-14.5-20.1h-74.6c-10.2,0-17.5-10-14.3-19.7l30.5-92.1c3.4-10.1,12.8-17,23.5-17H435
		c10.7,0,20.2-6.8,23.5-17l61.1-184.1c18.7-56.5,61-99.9,114.6-119.8c-11.7-11.7-21.1-12-28.5-12c-2.3,0-218.5,0-218.5,0
		c-6.6,0-12.9,2.6-17.5,7.3L14.5,465.1c-19.3,19.3-19.3,50.6,0,69.9l226.4,226.4c4.6,4.6,11,7.3,17.5,7.3h26.2
		c34.6,0,65.2-22.2,76.1-55L403.5,584.5z"/>
</g>
</svg>
