<?xml version="1.0" encoding="utf-8"?>
<!-- Generator: Adobe Illustrator 21.1.0, SVG Export Plug-In . SVG Version: 6.00 Build 0)  -->
<svg version="1.1" id="Layer_1" xmlns="http://www.w3.org/2000/svg" xmlns:xlink="http://www.w3.org/1999/xlink" x="0px" y="0px"
	 viewBox="0 0 1024 1024" style="enable-background:new 0 0 1024 1024;" xml:space="preserve">
<path d="M286.1,933.1h-50.3c-16.5,0-29.8-13.3-29.8-29.8V120.9c0-16.5,13.3-29.8,29.8-29.8h50.3c16.5,0,29.8,13.3,29.8,29.8v782.4
	C316,919.7,302.6,933.1,286.1,933.1z"/>
<path d="M797.7,929.9h-50.8c-16.4,0-29.6-13.2-29.6-29.6V123.8c0-16.4,13.2-29.6,29.6-29.6h50.8c16.4,0,29.6,13.2,29.6,29.6v776.5
	C827.3,916.6,814.1,929.9,797.7,929.9z"/>
</svg>
